<?xml version="1.0" encoding="utf-8"?>
<!-- Generator: Adobe Illustrator 24.1.2, SVG Export Plug-In . SVG Version: 6.00 Build 0)  -->
<svg version="1.1" id="Слой_1" xmlns="http://www.w3.org/2000/svg" xmlns:xlink="http://www.w3.org/1999/xlink" x="0px" y="0px"
	 viewBox="0 0 500 500" style="enable-background:new 0 0 500 500;" xml:space="preserve">
<style type="text/css">
	.st0{fill:#C1272D;}
</style>
<path class="st0" d="M250,0C111.9,0,0,111.9,0,250s111.9,250,250,250s250-111.9,250-250S388.1,0,250,0z M67.9,400
	c18-21.3,40-37.9,64.6-50.1l78,111.5l-17,17.7C143.5,466.8,99.7,438.5,67.9,400z M249,421.6L161.7,338c27.2-9,56.7-13.5,87.4-13.5
	c28.4,0,56,4.2,81.5,12.4L249,421.6z M282.5,483.7l91.3-128c21.4,12.1,40.5,27.5,56.5,46.3C393.7,445.5,341.5,475.5,282.5,483.7z
	 M250,302.3c-75,0-144.8,34.3-190.7,86.6c-28.4-39-45.2-87-45.2-138.9C14.1,119.7,119.7,14.1,250,14.1S485.9,119.7,485.9,250
	c0,52.3-17.1,100.7-45.9,139.8C394.1,337.7,324.8,302.3,250,302.3z"/>
<path class="st0" d="M410.7,323.6c0,0-41.2-169.4-52.5-200.1c-14.4-39.1-54.1-61.6-87.9-67.4c-4-0.7-13.7,1.9-16.1,5
	c-0.8,1.1-1.6,2.2-2.6,3.1l-0.4,0.4c-0.9,0.9-2.3,1-3.4,0.4l-1.8-1.1c-1.7-1.1-14.6-4.5-16.7-4.6c-31.7-1.1-49.4,19.7-58.4,32
	c-29.2,40-48,86.7-55.1,135.7c-6.4,43.6-13.6,95.8-12.4,101c1.5,6.3,6.8,9.1,10.8,5.7l19.9-11.7c23.8-13.9,49.2-24.8,75.8-32.2
	c3.5-1,6.6-1.8,8.7-2.4c9.8,5.1,20.4,8,31.4,8c10.7,0,21-2.8,30.6-7.7l12.4,3.7c28.3,8.4,55.3,20.6,80.3,36.2
	c10.5,6.5,19,11.9,19,11.9c3.4,2.1,7.2,2.2,10.5,0.2l1.7-1C408.8,336,411.2,330,410.7,323.6z M167.7,171.7
	C178.4,106,199.4,139,250,139c50.6,0,71.7-32.8,83.1,32.8c8.7,49.8-32,114.8-82.7,114.8C199.8,286.6,159.5,221.7,167.7,171.7z"/>
</svg>
