<?xml version="1.0" encoding="utf-8"?>
<!-- Generator: Adobe Illustrator 24.1.2, SVG Export Plug-In . SVG Version: 6.00 Build 0)  -->
<svg version="1.1" id="Слой_1" xmlns="http://www.w3.org/2000/svg" xmlns:xlink="http://www.w3.org/1999/xlink" x="0px" y="0px"
	 viewBox="0 0 500 500" style="enable-background:new 0 0 500 500;" xml:space="preserve">
<style type="text/css">
	.st0{fill:#C1272D;}
</style>
<path class="st0" d="M250.4,0C112.4,0,0.4,111.9,0.4,250s111.9,250,250,250c138.1,0,250-111.9,250-250S388.5,0,250.4,0z M250.4,14.1
	c130.3,0,235.9,105.6,235.9,235.9c0,51.5-16.5,99.1-44.5,137.9c-45.9-52.7-116.1-85.7-191.4-85.7c-75.4,0-144.6,34.2-190.4,87
	c-28.6-39-45.5-87.2-45.5-139.3C14.5,119.7,120.2,14.1,250.4,14.1z M250.4,485.9c-72.7,0-137.6-32.9-180.9-84.5
	c43.3-50.9,108.5-49.7,180.9-49.7c72.1,0,138.1-1.2,181.4,49.1C388.6,452.8,323.4,485.9,250.4,485.9z"/>
<path class="st0" d="M151,46.4l-8,21.3c-4.1,10.9-6.2,22.5-6.2,34.2v0.9c0,12,3.8,23.7,11,33.4l8.4,11.4l17.8-32.3l-9.5-11.4
	c-6.1-7.3-10.7-15.7-13.7-24.8v0c-1.7-5.1-2.2-10.5-1.6-15.8L151,46.4z"/>
<path class="st0" d="M314.2,278.9c21.1-13.5,49.4,8.7,73.5,8.7l-36.3-126.4l0,0c-9.2-47.4-50.9-83.1-101-83.1
	c-50.6,0-92.7,36.6-101.3,84.8l0,0c-9.9,35.6-21.5,89.2-31.4,124.7c24.4,0,50.1-19.1,71.9-8.8c9.7,4.6,52.3,12.6,61.3,12.6
	C260.2,291.5,304.4,285.2,314.2,278.9z M163.4,180.9c0-53.6,33.5,15.9,87.1,15.9s88-69.5,88-15.9c0,18.2-4.3,34.3-12.1,47.5
	l-10.7,14.2c-16.1,17.1-39.9,26.8-68.1,26.8C193.9,269.5,163.4,234.5,163.4,180.9z"/>
<path class="st0" d="M349.2,46.4l8,21.3c4.1,10.9,6.2,22.5,6.2,34.2v0.9c0,12-3.8,23.7-11,33.4l-8.4,11.4l-17.8-32.3l9.5-11.4
	c6.1-7.3,10.7-15.7,13.7-24.8v0c1.7-5.1,2.2-10.5,1.6-15.8L349.2,46.4z"/>
</svg>
