<?xml version="1.0" encoding="utf-8"?>
<!-- Generator: Adobe Illustrator 24.1.2, SVG Export Plug-In . SVG Version: 6.00 Build 0)  -->
<svg version="1.1" id="Слой_1" xmlns="http://www.w3.org/2000/svg" xmlns:xlink="http://www.w3.org/1999/xlink" x="0px" y="0px"
	 viewBox="0 0 500 500" style="enable-background:new 0 0 500 500;" xml:space="preserve">
<style type="text/css">
	.st0{fill:#C1272D;}
</style>
<path class="st0" d="M250.4,74.5c-56.8,0-102.9,46-102.9,102.9s46,114.3,102.9,114.3s102.9-57.5,102.9-114.3S307.2,74.5,250.4,74.5z
	 M250.4,197.8c-53.6,0-87.1,33.2-87.1-20.4s33.5-45.2,87.1-45.2s88-8.4,88,45.2S304,197.8,250.4,197.8z"/>
<path class="st0" d="M250.4-0.2c-138.1,0-250,111.9-250,250s111.9,250,250,250s250-111.9,250-250S388.5-0.2,250.4-0.2z M250.4,13.9
	c130.3,0,235.9,105.6,235.9,235.9c0,52.5-17.2,101-46.1,140.2C394.3,337,325.9,302,250.4,302c-75.4,0-144.3,34.5-190.2,87.4
	C31.5,350.3,14.5,302,14.5,249.8C14.5,119.5,120.1,13.9,250.4,13.9z M250.4,485.7c-72.8,0-137.9-33-181.2-84.9
	c43.3-50.7,108.9-49.4,181.2-49.4c72.1,0,138.2-1.3,181.5,49C388.6,452.5,323.4,485.7,250.4,485.7z"/>
<g>
	<path class="st0" d="M123.9,263.4l-4.2-7.3c-1.1-1.9-3.4-2.8-5.5-2.1l-34.5,11.5c-2.1,0.7-3,3.1-1.9,5l4.3,7.4
		c1.1,1.9,3.3,2.7,5.4,2l34.7-11.5C124.1,267.6,125,265.3,123.9,263.4z"/>
	<path class="st0" d="M63.7,246l4.5,7.8c1.1,1.8,3.2,2.7,5.2,2l34.5-11.5c2.2-0.7,3.1-3.2,2-5.2l-4.2-7.3c-1-1.8-3.2-2.6-5.1-1.9
		l-35.1,11.7C63.5,242.1,62.7,244.3,63.7,246z"/>
	<path class="st0" d="M142.5,295.6l-8.5-14.8c-1.4-2.3-4.2-3.4-6.7-2.6L94,289.4c-2.3,0.8-3.3,3.5-2.1,5.6l12.9,22.4
		c4.4,7.6,14.1,10.2,21.7,5.8l10.2-5.9C144.3,312.9,146.9,303.2,142.5,295.6z"/>
	<path class="st0" d="M60.6,231.3l32.7-10.9c2.5-0.8,3.6-3.8,2.3-6.1l-6.2-10.7c-4.4-7.6-14.1-10.2-21.7-5.8l-10.2,5.9
		c-7.6,4.4-10.2,14.1-5.8,21.7l1.9,3.3C55.1,231.1,57.9,232.2,60.6,231.3z"/>
</g>
<g>
	<path class="st0" d="M377.8,263.4l4.2-7.3c1.1-1.9,3.4-2.8,5.5-2.1l34.5,11.5c2.1,0.7,3,3.1,1.9,5l-4.3,7.4c-1.1,1.9-3.3,2.7-5.4,2
		l-34.7-11.5C377.6,267.6,376.7,265.3,377.8,263.4z"/>
	<path class="st0" d="M438,246l-4.5,7.8c-1.1,1.8-3.2,2.7-5.2,2l-34.5-11.5c-2.2-0.7-3.1-3.2-2-5.2l4.2-7.3c1-1.8,3.2-2.6,5.1-1.9
		l35.1,11.7C438.2,242.1,439,244.3,438,246z"/>
	<path class="st0" d="M359.2,295.6l8.5-14.8c1.4-2.3,4.2-3.4,6.7-2.6l33.3,11.1c2.3,0.8,3.3,3.5,2.1,5.6l-12.9,22.4
		c-4.4,7.6-14.1,10.2-21.7,5.8l-10.2-5.9C357.4,312.9,354.8,303.2,359.2,295.6z"/>
	<path class="st0" d="M441.1,231.3l-32.7-10.9c-2.5-0.8-3.6-3.8-2.3-6.1l6.2-10.7c4.4-7.6,14.1-10.2,21.7-5.8l10.2,5.9
		c7.6,4.4,10.2,14.1,5.8,21.7l-1.9,3.3C446.6,231.1,443.8,232.2,441.1,231.3z"/>
</g>
</svg>
