<?xml version="1.0" encoding="utf-8"?>
<!-- Generator: Adobe Illustrator 24.1.2, SVG Export Plug-In . SVG Version: 6.00 Build 0)  -->
<svg version="1.1" id="Слой_1" xmlns="http://www.w3.org/2000/svg" xmlns:xlink="http://www.w3.org/1999/xlink" x="0px" y="0px"
	 viewBox="0 0 500 500" style="enable-background:new 0 0 500 500;" xml:space="preserve">
<style type="text/css">
	.st0{fill:#C1272D;}
</style>
<path class="st0" d="M250,0C111.9,0,0,111.9,0,250s111.9,250,250,250s250-111.9,250-250S388.1,0,250,0z M250,485.9
	C119.7,485.9,14.1,380.3,14.1,250S119.7,14.1,250,14.1S485.9,119.7,485.9,250S380.3,485.9,250,485.9z"/>
<g>
	<path class="st0" d="M154.4,263.6c-6.6-7.7-11.2-13.1-18.3-21.4c13.6-4.1,25.6-7.7,39.3-11.8c-5.5-6.3-11-12.5-18.8-21.4
		c13.6-2.3,25.2-4.3,39.3-6.7c-0.5-5.6-1.1-12.4-2.1-22.6c11.5,8.1,21.1,14.9,30.7,21.7c1.8-2.2,3.7-4.4,5.5-6.6
		c-8.2-8.1-15.2-18.5-25-23.8c-19.2-10.5-41.1-15.8-60-26.9c-14.6-8.5-28.1-19.3-39.7-41.4c28.6,28.8,95.5,46.7,144,65.2
		c8.1,3.1,20.3,1,28.5-2.9c22.3-10.7,27.1-9.8,41.7,9.8c6.4,8.6,15.9,14.9,23.1,23c5.9,6.6,15,14.3,15,21.6
		c0.2,28.6,23.5,40.5,38.4,60.8c4.9-7.5,8.5-13.2,13.2-20.5c1.4,3.1,3.1,5.2,3.3,7.5c1.5,13.8,5,25.9,12.9,38.5
		c13.9,22-9.6,46.7-42.8,45.2c3.6-5.2,6.8-9.7,11.1-15.8c-9.3,1.3-16.4,2.3-25.9,3.7c4.5-6.7,7.6-11.3,11.7-17.4
		c-8.8,1.2-15.9,2.1-25.2,3.3c4.1-6.5,7-11.1,10.7-17c-8.4,1.1-15,2-24,3.2c3.5-6.3,6-10.9,9.4-17c-8.2,1-14.8,1.9-23.3,2.9
		c3.5-6.3,6.1-11,11.1-20c-16.5-2.1-30.4-3.9-49.1-6.3c12.7,21.1,22.2,36.8,32.3,53.5c1.5-0.6,5-2,9.9-3.9c-0.9,7.2-1.7,13.7-2.8,22
		c6-3.1,10.4-5.3,16.7-8.5c-0.9,7.6-1.6,13.9-2.6,22c5.8-2.8,10.2-4.9,14.6-7.1c0.6,0.7,1.9,1.6,1.8,2.1
		c-2.8,9.9,4.4,24.4-11.9,28.2c-12.8,3-25.8,5-40.6,7.8c3.1-5.5,5.4-9.7,7.9-14.2c-0.9-1.3-1.6-2.8-2.7-4.1
		c-9.5-10.9-18.6-22.2-28.8-32.5c-16.8-16.9-30.3-15-40.4,6.7c-7.3,15.5-11.5,32.5-17.8,51.1c-27.6,0.5-53.9-8.8-73.4-31.1
		c-12.3-14.1-20.8-31.8-29.5-48.4c-12.6-23.8-23.2-45-16.8-45.9C120.7,266.2,128,267.4,154.4,263.6z M193.2,261.4
		c0.6,1.1,1.3,2.1,1.9,3.2c9.5-1,19-1.8,28.5-3.2c3.5-0.5,8.7-2,9.6-4.3c1.1-3-0.5-8.3-2.9-10.6c-2.1-2-7.7-2.9-10.3-1.5
		C210.8,249.7,202.1,255.8,193.2,261.4z M202.6,214.7c0.1,1.6,0.3,3.1,0.4,4.7c11.8,5.1,23.6,10.2,38.1,16.4
		c0.3-7,1.3-16.5,0.7-16.6C228.9,217,215.7,215.9,202.6,214.7z M299.7,239.4c12.1,3.4,24.3,6.9,39.3,11.1
		C327.8,225.6,320.3,223.2,299.7,239.4z M232.9,285.9c-6-4.1-12.3-9.4-13-8.7c-7.2,6.8-13.5,14.6-20.1,22.1c1,0.6,1.9,1.3,2.9,1.9
		C211.4,296.8,220.1,292.4,232.9,285.9z"/>
	<path class="st0" d="M161.5,90.8c36.5,28.8,88.7,19.7,123.8,52.8c-11.2,12.3-21.1,12.4-35.5,3.1c-15.7-10.2-35.1-14.4-52-23
		c-8.4-4.3-16.4-9.5-24.3-14.8c-9.5-6.4-17.7-14.7-23.7-24.4C141.2,70.6,136.8,69.2,161.5,90.8z"/>
</g>
</svg>
