<?xml version="1.0" encoding="utf-8"?>
<!-- Generator: Adobe Illustrator 24.1.2, SVG Export Plug-In . SVG Version: 6.00 Build 0)  -->
<svg version="1.1" id="Слой_1" xmlns="http://www.w3.org/2000/svg" xmlns:xlink="http://www.w3.org/1999/xlink" x="0px" y="0px"
	 viewBox="0 0 500 500" style="enable-background:new 0 0 500 500;" xml:space="preserve">
<style type="text/css">
	.st0{fill:#C1272D;}
</style>
<path class="st0" d="M250,0.9C111.9,0.9,0,112.8,0,250.9s111.9,250,250,250s250-111.9,250-250S388.1,0.9,250,0.9z M250,486.8
	c-130.3,0-235.9-105.6-235.9-235.9S119.7,14.9,250,14.9s235.9,105.6,235.9,235.9S380.3,486.8,250,486.8z"/>
<g>
	<path class="st0" d="M73.3,182.3c2.1-2.4,4.7-1.8,7.3-1.5c31.3,3.7,60.9,12.6,88.2,28.5c2.1,1.2,4,2.7,6.2,3.8c3.5,1.7,4.4,4,4,7.9
		c-2.9,27.3,1.8,53.6,11.2,79.2c6.6,18,15.5,34.8,26.1,50.8c0.6,0.9,1.2,1.9,2.3,3.7c-5.5-1.4-10.2-2.6-14.9-4
		c-25.2-7.6-48.7-18.7-68.9-35.8c-23.1-19.6-38.1-44.5-48.3-72.6c-6.2-17.1-10.4-34.7-12.6-52.8c-0.1-0.5-0.4-1-0.6-1.6
		C73.3,185.9,73.3,184.1,73.3,182.3z"/>
	<path class="st0" d="M73.3,315.5c6.6-5.1,13.2-10.1,20-15.3c28.6,39.3,68,60.5,113.1,72.8c0.1,0.3,0.1,0.7,0.2,1
		c-7.2,2.1-14.3,4.7-21.6,6.4c-29.6,6.8-54.8-2.5-77.2-21.5c-12.2-10.4-22.4-22.4-31.2-35.7c-1.1-1.6-2.2-3.2-3.3-4.8
		C73.3,317.4,73.3,316.4,73.3,315.5z"/>
	<path class="st0" d="M198.1,236.2c0.7-28.4,8.8-54.7,21.6-79.7c7.5-14.6,16.3-28.3,26.7-41c2.7-3.3,4.5-3.3,7.2,0
		c22,27.7,38.2,58.2,45,93.1c6,30.9,1.5,60.6-10.1,89.5c-8.6,21.2-20.2,40.7-34.6,58.6c-2.8,3.5-4.7,3.6-7.4,0.3
		c-22-27.7-38.3-58.1-44.9-93.2C199.8,254.8,199.2,245.5,198.1,236.2z"/>
	<path class="st0" d="M282.1,354.3c5-8.5,10.1-16.6,14.6-25c12.5-23.2,21.4-47.6,24-73.9c1.2-11.9,0.4-24.1,0.3-36.1
		c0-2.5,0.6-3.9,2.7-5.2c22.6-14.8,47.4-24.1,73.7-29.6c8-1.7,16.1-2.6,24.2-3.8c3.8-0.6,5.6,1,5.1,4.7
		c-4.4,37.8-15.4,73.2-38,104.4c-19,26.1-44.6,43.4-74.5,54.8c-9.6,3.7-19.7,6.3-29.5,9.3C283.9,354,283.1,354.1,282.1,354.3z"/>
	<path class="st0" d="M292.7,373.2c46.2-12.5,85.5-33.8,114-73c6.4,4.8,12.6,9.2,18.6,14c0.9,0.7,1.4,3.5,0.8,4.5
		c-16.3,25.5-36,47.5-65,58.9c-19,7.4-38.1,5.9-57.1-0.2C300.5,376.3,297.1,374.9,292.7,373.2z"/>
	<path class="st0" d="M317.5,193.3c-5.1-13.1-10.1-26-15-38.9c-0.3-0.7,0.1-2.2,0.7-2.8c11.4-10.5,23.6-19.7,36.9-27.6
		c2.9-1.7,4.8-1,5.9,2.2c5.3,14.7,8.9,29.9,11.1,45.4c0.2,1.5,0.3,2.8-1.7,3.5c-13.1,4.8-25.6,10.8-37.4,18.1
		C317.6,193.4,317.1,193.4,317.5,193.3z"/>
	<path class="st0" d="M197.8,152.6c-5,13.7-10,27.1-15,40.8c-0.3-0.1-1-0.5-1.8-0.8c-11.9-5.7-23.7-11.6-35.6-17.1
		c-2.3-1.1-2.7-2.1-2.4-4.4c2.3-15.2,5.9-30.2,11.1-44.7c1.1-3.1,2.8-3.9,5.5-2.6C167.4,127.4,192.2,146.2,197.8,152.6z"/>
</g>
</svg>
