<?xml version="1.0" encoding="utf-8"?>
<!-- Generator: Adobe Illustrator 24.1.2, SVG Export Plug-In . SVG Version: 6.00 Build 0)  -->
<svg version="1.1" id="Слой_1" xmlns="http://www.w3.org/2000/svg" xmlns:xlink="http://www.w3.org/1999/xlink" x="0px" y="0px"
	 viewBox="0 0 500 500" style="enable-background:new 0 0 500 500;" xml:space="preserve">
<style type="text/css">
	.st0{fill:#C1272D;}
</style>
<path class="st0" d="M277,78.4c0.6-2.7,0.9-5.4,0.9-8.3c0-17.2-11.2-26.6-28.4-26.6s-29.1,9.8-29.1,27.1c0,2.9,0.3,5.6,0.9,8.3
	c-39.7,12.2-68.5,49.2-68.5,92.9c0,53.7,43.5,123.6,97.2,123.6c53.7,0,97.2-69.9,97.2-123.6C347.2,127.4,317.5,90.1,277,78.4z
	 M248.6,284.5c-50.6,0-89.1-62.8-80.9-112.8C178.4,106,199.4,139,250,139s71.7-32.8,83.1,32.8C341.8,221.6,299.3,284.5,248.6,284.5z
	"/>
<path class="st0" d="M250,0C111.9,0,0,111.9,0,250s111.9,250,250,250s250-111.9,250-250S388.1,0,250,0z M67.9,400
	c18-21.3,39.9-37.9,64.6-50.1l78.1,111.5l-17,17.7C143.5,466.8,99.7,438.5,67.9,400z M249,421.6L161.6,338
	c27.2-9,56.7-13.4,87.5-13.4c28.4,0,55.9,4.2,81.4,12.4L249,421.6z M282.4,483.7l91.4-128c21.4,12.1,40.5,27.6,56.5,46.4
	C393.7,445.5,341.5,475.6,282.4,483.7z M250,302.3c-75,0-144.8,34.3-190.7,86.6c-28.4-39-45.2-87-45.2-138.9
	C14.1,119.7,119.7,14.1,250,14.1S485.9,119.7,485.9,250c0,52.3-17.1,100.7-45.9,139.8C394.1,337.7,324.8,302.3,250,302.3z"/>
</svg>
