<?xml version="1.0" encoding="utf-8"?>
<!-- Generator: Adobe Illustrator 24.1.2, SVG Export Plug-In . SVG Version: 6.00 Build 0)  -->
<svg version="1.1" id="Слой_1" xmlns="http://www.w3.org/2000/svg" xmlns:xlink="http://www.w3.org/1999/xlink" x="0px" y="0px"
	 viewBox="0 0 500 500" style="enable-background:new 0 0 500 500;" xml:space="preserve">
<style type="text/css">
	.st0{fill:#C1272D;}
</style>
<path class="st0" d="M250,0C111.9,0,0,111.9,0,250s111.9,250,250,250s250-111.9,250-250S388.1,0,250,0z M250,14.1
	c130.3,0,235.9,105.6,235.9,235.9c0,52.3-17.1,100.7-45.9,139.8c-45.9-52.1-116.1-22.2-190.9-22.2c-75,0-143.9-31-189.8,21.3
	c-28.4-39-45.2-87-45.2-138.9C14.1,119.7,119.7,14.1,250,14.1z M250,485.9c-73.3,0-138.8-33.5-182.1-85.9
	c43.3-51.1,108.1-10.2,180.4-10.2c71.9,0,138.8-38.6,182.1,12.3C387.1,453.3,322.3,485.9,250,485.9z"/>
<path class="st0" d="M418.4,158.8l-1.2-30.9l-4.8,22.6c-1.5,7.1-4.5,13.9-8.9,19.7v0c-7.7,10.4-17.3,19.3-28.3,26.1l-9.6,6
	c-2.5-8.9-6-17.3-10.4-25.2l5.9-10.7c7.4-13.4,10.3-28.7,8.4-43.9l-0.1-1.2c-1.9-14.7-6.4-28.9-13.4-42l-13.6-25.5l5.2,21
	c1.6,6.6,1.8,13.5,0.5,20.2v0c-2.3,11.9-6.8,23.2-13.2,33.4l-8.8,13.9c-20.7-17-47.2-27.2-76.2-27.2c-29.1,0-55.7,10.3-76.5,27.5
	l-9.6-14.4c-6.7-10.1-11.4-21.3-14-33.1c-1.4-6.6-1.4-13.5,0.1-20.2l4.7-21.1l-13,25.8c-6.7,13.2-10.9,27.6-12.4,42.3l-0.1,1.2
	c-1.6,15.2,1.7,30.5,9.4,43.7l6.1,10.5c-3.3,6.1-6.2,12.4-8.4,19.1l-11.5-7.2c-11-6.9-20.6-15.7-28.3-26.1
	c-4.3-5.9-7.4-12.6-8.9-19.7l-4.8-22.6l-1.2,30.9c-0.6,15.9,1.6,31.7,6.6,46.8l0.4,1.2c5.2,15.5,15.2,29,28.5,38.5l13.3,9.4
	c6,61,56.4,111.7,118.6,111.7c59.4,0,109.5-46.3,119.3-103.6l14.4-10.2c13.4-9.5,23.4-22.9,28.5-38.5l0.4-1.2
	C416.8,190.6,419,174.7,418.4,158.8z M355.3,237.2c-5,58.6-46.5,113.8-106.2,113.8c-59.7,0-100.2-56.3-104.1-116
	c-3.9-59.5,45.3-107.8,105-107.8C309.7,127.2,360.4,177.7,355.3,237.2z"/>
<path class="st0" d="M229.5,240.5c0,9.6-15.6-12.8-34.9-12.8s-34.9-7.8-34.9-17.3s15.6,0,34.9,0S229.5,230.9,229.5,240.5z"/>
<path class="st0" d="M267.7,240.5c0,9.6,15.6-12.8,34.9-12.8s34.9-7.8,34.9-17.3s-15.6,0-34.9,0S267.7,230.9,267.7,240.5z"/>
</svg>
