<svg width="45" height="45" xmlns="http://www.w3.org/2000/svg" xmlns:undefined="http://sodipodi.sourceforge.net/DTD/sodipodi-0.dtd" xml:space="preserve" version="1.1">
 <metadata id="metadata8">image/svg+xml</metadata>
 <defs id="defs6">
  <clipPath id="clipPath20" clipPathUnits="userSpaceOnUse">
   <path id="path18" d="m-61.50001,829.48602l530.973,0l0,-551.986l-530.973,0l0,551.986z"/>
  </clipPath>
 </defs>
 <g>
  <title>Layer 1</title>
  <path fill-rule="evenodd" fill="#c1272d" id="path198" d="m22.47713,1.25509c-11.9933,0 -21.71728,9.72398 -21.71728,21.71995c0,9.59598 6.22265,17.73596 14.8533,20.60928c1.08666,0.19867 1.48266,-0.472 1.48266,-1.048c0,-0.51467 -0.01867,-1.88133 -0.02933,-3.69332c-6.04132,1.312 -7.31598,-2.91199 -7.31598,-2.91199c-0.988,-2.50933 -2.41199,-3.17733 -2.41199,-3.17733c-1.972,-1.34666 0.14933,-1.32 0.14933,-1.32c2.17999,0.15333 3.32666,2.23866 3.32666,2.23866c1.93733,3.31866 5.08399,2.35999 6.32132,1.804c0.19733,-1.40266 0.75733,-2.35999 1.37866,-2.90266c-4.82265,-0.548 -9.89331,-2.41199 -9.89331,-10.73464c0,-2.37066 0.84666,-4.30932 2.23599,-5.82799c-0.224,-0.54933 -0.96933,-2.75733 0.212,-5.74799c0,0 1.824,-0.584 5.97332,2.22666c1.732,-0.48267 3.59066,-0.72266 5.43732,-0.73066c1.844,0.008 3.70266,0.248 5.43732,0.73066c4.14666,-2.81066 5.96665,-2.22666 5.96665,-2.22666c1.18533,2.99066 0.44,5.19865 0.216,5.74799c1.392,1.51866 2.23333,3.45732 2.23333,5.82799c0,8.34398 -5.07865,10.17997 -9.91731,10.71731c0.78,0.67067 1.47466,1.996 1.47466,4.02266c0,2.90266 -0.02667,5.24532 -0.02667,5.95732c0,0.58133 0.39067,1.25733 1.49333,1.04533c8.62398,-2.87866 14.8413,-11.01331 14.8413,-20.60662c0,-11.99597 -9.72531,-21.71995 -21.72128,-21.71995"/>
 </g>
</svg>