<svg width="416" height="67" xmlns="http://www.w3.org/2000/svg" version="1.1" xml:space="preserve">
 <g>
  <title>Layer 1</title>
  <path class="st5" d="m140.9,11.8l0,-9c-8.8,3.6 -18.6,5.6 -29.2,5.6c-10.6,0 -20.4,-2 -29.2,-5.6l0,9c3.9,1.5 8,2.7 12.2,3.6l0,6.8l-8.6,0l0,6.8l8.6,0l0,36.5l6.8,0l0,-36.6l22.5,0l0,36.5l6.8,0l0,-36.5l6.5,0l0,-6.8l-6.5,0l0,-7.2c3.4,-0.8 6.8,-1.9 10.1,-3.1zm-16.9,10.3l-22.5,0l0,-5.6c3.4,0.4 6.8,0.6 10.2,0.6c4.2,0 8.3,-0.3 12.3,-0.9l0,5.9z" fill="#c1272d" id="svg_1"/>
  <path class="st6" d="m13.4,58.7c-2.1,-0.4 -4,-1.1 -5.8,-2c-1.8,-0.9 -3.5,-2 -5,-3.3l4.2,-5.2c1.8,1.6 3.8,2.8 6,3.6c2.2,0.8 4.6,1.2 7.2,1.2c3.5,0 6.2,-0.6 8.1,-1.9c1.9,-1.3 2.9,-3.1 2.9,-5.5l0,0c0,-1.7 -0.4,-3 -1.3,-4c-0.9,-1 -2,-1.7 -3.4,-2.2c-1.4,-0.5 -3.2,-0.9 -5.3,-1.3c-0.1,0 -0.1,0 -0.2,0c-0.1,0 -0.1,0 -0.2,0l-0.5,-0.1c-3.2,-0.6 -5.8,-1.2 -7.8,-1.9c-2,-0.7 -3.7,-2 -5.2,-3.8c-1.4,-1.8 -2.1,-4.5 -2.1,-7.8l0,0c0,-3 0.7,-5.5 2,-7.6c1.3,-2.1 3.3,-3.7 5.8,-4.8c2.6,-1.1 5.6,-1.7 9.2,-1.7c1.7,0 3.4,0.2 5.1,0.6c1.7,0.4 3.3,0.9 4.9,1.7c1.6,0.7 3.2,1.7 4.8,2.8l-3.8,5.4c-1.8,-1.3 -3.7,-2.4 -5.5,-3c-1.8,-0.7 -3.6,-1 -5.5,-1c-3.3,0 -5.8,0.7 -7.7,2c-1.8,1.3 -2.7,3.2 -2.7,5.6l0,0c0,1.7 0.5,3 1.4,3.9c0.9,0.9 2.1,1.6 3.5,2.1c1.4,0.5 3.3,0.9 5.8,1.4c0.1,0 0.2,0 0.2,0c0.1,0 0.2,0 0.2,0c0.1,0 0.2,0 0.4,0.1c0.1,0 0.3,0 0.4,0.1c2.9,0.6 5.3,1.3 7.3,2.1c1.9,0.8 3.6,2.1 4.9,3.9c1.3,1.8 2,4.3 2,7.5l0,0.1c0,2.9 -0.7,5.4 -2.1,7.5c-1.4,2.1 -3.4,3.7 -6,4.8c-2.6,1.1 -5.8,1.6 -9.5,1.6c-2.4,-0.2 -4.6,-0.5 -6.7,-0.9z" fill="#e0eaf0" id="svg_2"/>
  <path class="st6" d="m40.6,10.8l33.9,0l0,6.4l-33.9,0l0,-6.4zm13.6,3.9l6.7,0l0,44.1l-6.7,0l0,-44.1z" fill="#e0eaf0" id="svg_3"/>
  <path class="st6" d="m211.5,8.6l33.9,0l0,6.4l-33.9,0l0,-6.4zm13.6,4l6.7,0l0,44.1l-6.7,0l0,-44.1z" fill="#e0eaf0" id="svg_4"/>
  <path class="st6" d="m257.8,55.1c-2.5,-1.4 -4.4,-3.4 -5.8,-6.1s-2,-5.9 -2,-9.7l0,-30.7l6.7,0l0,30.9c0,3.5 0.9,6.2 2.6,8.1c1.8,1.9 4.3,2.9 7.5,2.9c3.2,0 5.7,-1 7.5,-2.9c1.8,-1.9 2.7,-4.6 2.7,-8.1l0,-30.9l6.7,0l0,30.7c0,3.8 -0.7,7 -2,9.7s-3.3,4.7 -5.8,6.1c-2.5,1.4 -5.6,2.1 -9.2,2.1c-3.3,0 -6.4,-0.7 -8.9,-2.1z" fill="#e0eaf0" id="svg_5"/>
  <path class="st6" d="m294.4,8.6l6.1,0l23.5,37.1l-0.8,0.9l0,-38l6.7,0l0,48l-6.2,0l-23.4,-36.6l0.8,-0.9l0,37.4l-6.7,0l0,-47.9z" fill="#e0eaf0" id="svg_6"/>
  <path class="st6" d="m340.5,8.6l6.7,0l0,48.1l-6.7,0l0,-48.1zm3.3,0l27.6,0l0,6.4l-27.6,0l0,-6.4zm0,21l24,0l0,6.4l-24,0l0,-6.4zm0,20.7l27.6,0l0,6.4l-27.6,0l0,-6.4z" fill="#e0eaf0" id="svg_7"/>
  <path class="st6" d="m150.2,8.6l6.7,0l0,48.1l-6.7,0l0,-48.1zm3,21.3l16.4,0c1.3,0 2.4,-0.3 3.4,-0.9c1,-0.6 1.8,-1.5 2.3,-2.6c0.5,-1.1 0.8,-2.4 0.8,-3.9c0,-1.5 -0.3,-2.8 -0.8,-3.9c-0.5,-1.1 -1.3,-2 -2.3,-2.6c-1,-0.6 -2.1,-0.9 -3.4,-0.9l-16.4,0l0,-6.4l16.1,0c2.8,0 5.2,0.6 7.3,1.7c2.1,1.1 3.7,2.8 4.9,4.9c1.2,2.1 1.7,4.5 1.7,7.3c0,2.8 -0.6,5.2 -1.8,7.3c-1.2,2.1 -2.8,3.7 -4.9,4.9c-2.1,1.1 -4.5,1.7 -7.3,1.7l-16.1,0l0,-6.6l0.1,0zm13.1,5l6.7,-1.5l12.3,23.3l-8,0l-11,-21.8z" fill="#e0eaf0" id="svg_8"/>
  <path class="st6" d="m386.7,57c-2.1,-0.4 -4,-1.1 -5.8,-2c-1.8,-0.9 -3.5,-2 -5,-3.3l4.2,-5.2c1.8,1.6 3.8,2.8 6,3.6c2.2,0.8 4.6,1.2 7.2,1.2c3.5,0 6.2,-0.6 8.1,-1.9c1.9,-1.3 2.9,-3.1 2.9,-5.5l0,0c0,-1.7 -0.4,-3 -1.3,-4c-0.9,-1 -2,-1.7 -3.4,-2.2c-1.4,-0.5 -3.2,-0.9 -5.3,-1.3c-0.1,0 -0.1,0 -0.2,0c-0.1,0 -0.1,0 -0.2,0l-0.5,-0.1c-3.2,-0.6 -5.8,-1.2 -7.8,-1.9s-3.7,-2 -5.2,-3.8c-1.4,-1.8 -2.1,-4.5 -2.1,-7.8l0,0c0,-3 0.7,-5.5 2,-7.6c1.3,-2.1 3.3,-3.7 5.8,-4.8c2.6,-1.1 5.6,-1.7 9.2,-1.7c1.7,0 3.4,0.2 5.1,0.6c1.7,0.4 3.3,0.9 4.9,1.7c1.6,0.7 3.2,1.7 4.8,2.8l-3.8,5.4c-1.8,-1.3 -3.7,-2.4 -5.5,-3c-1.8,-0.7 -3.6,-1 -5.5,-1c-3.3,0 -5.8,0.7 -7.7,2c-1.8,1.3 -2.7,3.2 -2.7,5.6l0,0c0,1.7 0.5,3 1.4,3.9c0.9,0.9 2.1,1.6 3.5,2.1c1.4,0.5 3.3,0.9 5.8,1.4c0.1,0 0.2,0 0.2,0c0.1,0 0.2,0 0.2,0c0.1,0 0.2,0 0.4,0.1c0.1,0 0.3,0 0.4,0.1c2.9,0.6 5.3,1.3 7.3,2.1c1.9,0.8 3.6,2.1 4.9,3.9c1.3,1.8 2,4.3 2,7.5l0,0.1c0,2.9 -0.7,5.4 -2.1,7.5c-1.4,2.1 -3.4,3.7 -6,4.8c-2.6,1.1 -5.8,1.6 -9.5,1.6c-2.4,-0.2 -4.6,-0.4 -6.7,-0.9z" fill="#e0eaf0" id="svg_9" xmlns="http://www.w3.org/2000/svg"/>
 </g>

</svg>