<svg width="143" height="88" xmlns="http://www.w3.org/2000/svg" version="1.1">

 <g>
  <title>Layer 1</title>
  <g transform="matrix(0.490705 0 0 0.490705 1.33258 29.941)" stroke="null" id="SvgjsG1008">
   <svg y="-118.19723" x="0" stroke="null" id="svg_1" height="288" width="288" viewBox="0 0 500 500" enable-background="new 0 0 500 500" xmlns="http://www.w3.org/2000/svg">
    <path stroke="null" id="svg_2" class="color000 svgShape" fill="#e0eaf0" d="m257.1,397.8c-50.5,0 -101.1,0 -151.6,0c-50.1,-0.1 -89.8,-32.9 -99.3,-82.2c-10.2,-52.4 27.9,-106.4 80.7,-114.6c13.3,-2.1 26.5,-1.9 39.6,1.2c2.9,0.7 3.9,0.3 4.8,-2.6c11.4,-32.7 40.2,-52.5 74.8,-51.6c10.8,0.3 21,3 30.6,7.9c2.4,1.2 3.7,1.5 5.3,-1.4c21.2,-37.3 53.5,-54.7 96.1,-52.2c43.4,2.5 82.5,39.4 88.6,82.6c2.1,14.9 1.5,29.5 -3,43.9c-0.8,2.7 -0.4,3.6 2.5,4.1c39.5,7 68.5,40.3 69.2,79.2c0.8,40.9 -26,75.1 -66,84c-6.4,1.4 -12.8,1.7 -19.3,1.7c-50.9,0 -102,0 -153,0z"/>
   </svg>
  </g>
 </g>
</svg>