<svg width="136" height="177" xmlns="http://www.w3.org/2000/svg" xml:space="preserve" version="1.1">

 <g>
  <title>Layer 1</title>
  <path id="svg_1" fill="#333333" d="m104.5,176.3l22.3,0c5,0 9.1,-4.1 9.1,-9.1l0,-157.1c0,-5 -4.1,-9.1 -9.1,-9.1l-22.3,0c-5,0 -9.1,4.1 -9.1,9.1l0,157.1c-0.1,5 4,9.1 9.1,9.1z" class="st0"/>
  <path id="svg_2" fill="#333333" d="m8.6,176.3l22.4,0c5,0 9.1,-4.1 9.1,-9.1l0,-157.1c0,-5 -4.1,-9.1 -9.1,-9.1l-22.3,0c-5,0 -9.1,4.1 -9.1,9.1l0,157.1c-0.1,5 4,9.1 9,9.1z" class="st0"/>
 </g>
</svg>